PathFileType	4	(X/Y/Z)	/Users/itak/Documents/Research/Walk-IL/dataset/trc/00022_00004.trc
DataRate	CameraRate	NumFrames	NumMarkers	Units	OrigDataRate	OrigDataStartFrame	OrigNumFrames
100.000000	100.000000	4	53	mm	100.000000	634	846
Frame#	Time	RPSI			LPSI			L3			STRN			T10			C7			CLAV			RBAK			LBAK			LSHO			LUPA			LAEL			LAOL			LWTS			LWPS			LFRA			LIFD			LHPS			LHTS			RSHO			RUPA			RAEL			RAOL			RWTS			RWPS			RFRA			RIFD			RHTS			RHPS			RBHD			LFHD			RFHD			LBHD			LHIP			RHIP			RASI			LASI			LKNE			LTHI			LANK			LTIP			LTOE			LMT1			LMT5			LHEE			RKNE			RTHI			RANK			RTIP			RTOE			RMT1			RMT5			RHEE			
		X1	Y1	Z1	X2	Y2	Z2	X3	Y3	Z3	X4	Y4	Z4	X5	Y5	Z5	X6	Y6	Z6	X7	Y7	Z7	X8	Y8	Z8	X9	Y9	Z9	X10	Y10	Z10	X11	Y11	Z11	X12	Y12	Z12	X13	Y13	Z13	X14	Y14	Z14	X15	Y15	Z15	X16	Y16	Z16	X17	Y17	Z17	X18	Y18	Z18	X19	Y19	Z19	X20	Y20	Z20	X21	Y21	Z21	X22	Y22	Z22	X23	Y23	Z23	X24	Y24	Z24	X25	Y25	Z25	X26	Y26	Z26	X27	Y27	Z27	X28	Y28	Z28	X29	Y29	Z29	X30	Y30	Z30	X31	Y31	Z31	X32	Y32	Z32	X33	Y33	Z33	X34	Y34	Z34	X35	Y35	Z35	X36	Y36	Z36	X37	Y37	Z37	X38	Y38	Z38	X39	Y39	Z39	X40	Y40	Z40	X41	Y41	Z41	X42	Y42	Z42	X43	Y43	Z43	X44	Y44	Z44	X45	Y45	Z45	X46	Y46	Z46	X47	Y47	Z47	X48	Y48	Z48	X49	Y49	Z49	X50	Y50	Z50	X51	Y51	Z51	X52	Y52	Z52	X53	Y53	Z53	

635	6.34	-346.7545776367188	1062.735717773438	603.184814453125	-201.6649780273438	1045.79443359375	531.31494140625	-268.9618835449219	1113.544189453125	554.1693115234375	-165.0830688476562	1299.542358398438	756.4705810546875	-266.198974609375	1257.625854492188	526.5991821289062	-212.0823822021484	1523.188842773438	563.1404418945312	-166.5505676269531	1424.5322265625	711.661376953125	-320.6281127929688	1395.40576171875	545.0194702148438	-136.2667694091797	1472.358032226562	509.6757507324219	-29.84955596923828	1468.653076171875	573.1871337890625	13.95319080352783	1342.496459960938	507.4900207519531	11.4885196685791	1128.69970703125	476.389404296875	-94.54058837890625	1128.906005859375	470.9525451660156	-17.97131729125977	868.6458129882812	557.2249145507812	-25.56427955627441	861.7785034179688	468.8756408691406	10.89762878417969	1011.42626953125	473.2571716308594	-45.94290161132812	680.8772583007812	570.7457885742188	-19.70376396179199	768.544921875	488.3720703125	-8.886998176574707	769.3865966796875	558.8770751953125	-342.3751525878906	1521.104614257812	697.9342041015625	-423.2574768066406	1463.522583007812	710.767578125	-504.8777465820312	1209.814697265625	675.65771484375	-422.4217224121094	1169.651733398438	637.7656860351562	-477.6010131835938	934.1918334960938	767.4389038085938	-563.1292114257812	933.8492431640625	731.07177734375	-528.4450073242188	1135.85107421875	689.6165771484375	-485.2316284179688	744.1922607421875	776.7755737304688	-490.6709899902344	824.9291381835938	798.1455688476562	-559.8775634765625	829.0860595703125	764.84619140625	-208.1832427978516	1707.46484375	723.2529907226562	-11.4610481262207	1644.63232421875	759.536376953125	-80.10428619384766	1654.38134765625	829.066162109375	-110.6259918212891	1698.977294921875	617.3743896484375	-62.5449104309082	937.4750366210938	579.8445434570312	-396.5911254882812	946.0680541992188	740.9229125976562	-288.5680541992188	977.2388916015625	810.3236694335938	-76.44432067871094	986.260498046875	708.5484008789062	-52.69087219238281	526.3582763671875	758.3078002929688	-46.13311386108398	643.7979736328125	678.3106079101562	-134.5579986572266	38.02822875976562	771.040771484375	-96.76570129394531	274.9878845214844	735.17041015625	-19.99054145812988	41.1421012878418	966.8978881835938	-69.75553131103516	49.67445373535156	938.8389892578125	-31.61312103271484	45.69370651245117	840.9491577148438	-219.4444274902344	46.32722473144531	763.8640747070312	-405.9547119140625	505.1836242675781	719.6228637695312	-399.8029174804688	780.2179565429688	750.9605102539062	-514.5345458984375	180.3440246582031	333.4367980957031	-437.1839294433594	402.9645385742188	635.750732421875	-437.7455139160156	40.67174911499023	488.2452697753906	-415.4416198730469	80.40705108642578	441.864501953125	-514.0153198242188	69.69744873046875	434.314208984375	-477.5485534667969	223.7554168701172	290.4100036621094	
636	6.350000000000001	-343.1380004882812	1063.2666015625	610.4708862304688	-198.4684295654297	1046.881103515625	537.6004028320312	-265.408935546875	1114.70068359375	561.0450439453125	-160.0080261230469	1300.491821289062	762.6179809570312	-262.6225891113281	1258.7431640625	533.5416870117188	-208.3673400878906	1524.304321289062	569.7601318359375	-161.8156890869141	1425.543823242188	717.9031982421875	-317.0089416503906	1396.570678710938	552.332275390625	-132.8993835449219	1473.46923828125	515.6994018554688	-26.08622741699219	1469.65771484375	578.483154296875	17.59609413146973	1343.5087890625	512.6907348632812	15.61754703521729	1129.612426757812	482.2020263671875	-90.48496246337891	1129.49169921875	477.0271911621094	-12.78939056396484	870.1002197265625	564.9445190429688	-20.64463043212891	862.5020751953125	476.662841796875	15.26528835296631	1012.278259277344	479.8000793457031	-39.7114372253418	682.406982421875	580.25634765625	-14.14077377319336	769.5101318359375	496.9755249023438	-3.195914506912231	770.9549560546875	567.4151611328125	-337.6781921386719	1522.078857421875	705.6212768554688	-418.4770202636719	1464.457397460938	718.9337768554688	-500.3135681152344	1210.851806640625	683.5609741210938	-418.1661071777344	1170.937255859375	644.7194213867188	-472.7235412597656	934.4921875	772.8705444335938	-558.6099243164062	934.675537109375	737.3817749023438	-523.7891235351562	1136.892333984375	697.1898803710938	-480.6479797363281	744.3838500976562	780.415283203125	-486.0294799804688	824.8994750976562	802.5292358398438	-555.2412719726562	829.5772705078125	770.1300048828125	-203.208740234375	1708.515869140625	729.7496337890625	-6.093100070953369	1645.715942382812	764.443359375	-74.16473388671875	1655.511962890625	834.504150390625	-106.4737091064453	1699.850830078125	623.0501098632812	-58.5188102722168	938.6309814453125	585.0658569335938	-391.5170288085938	946.7384643554688	749.1757202148438	-282.8141174316406	978.4584350585938	817.2876586914062	-71.82568359375	987.189697265625	713.73046875	-50.68664169311523	526.2345581054688	761.6727294921875	-43.42306518554688	644.235595703125	682.5015869140625	-134.5330505371094	38.15771484375	771.1680297851562	-95.817138671875	275.2174682617188	736.8387451171875	-20.08108901977539	40.63308715820312	967.1284790039062	-69.72734832763672	49.31385040283203	939.0657348632812	-31.63269996643066	45.7177619934082	841.1884155273438	-219.3978424072266	46.33911514282227	763.8916625976562	-398.5999450683594	505.0156860351562	735.9405517578125	-393.8186645507812	780.9175415039062	761.87451171875	-513.746337890625	189.445556640625	345.0667419433594	-430.715576171875	403.4075012207031	651.9059448242188	-437.0039978027344	41.48568344116211	495.9428100585938	-414.4295043945312	84.11229705810547	449.4951171875	-513.1710815429688	76.11525726318359	443.013671875	-476.7822875976562	233.2519989013672	302.6035461425781	
637	6.36	-339.6430053710938	1063.846069335938	617.6839599609375	-195.4553070068359	1047.9697265625	543.697509765625	-261.9917297363281	1115.887329101562	567.8120727539062	-155.0110015869141	1301.444213867188	768.5874633789062	-259.175048828125	1259.874145507812	540.3046264648438	-204.7998504638672	1525.430053710938	576.2745971679688	-157.1962432861328	1426.555419921875	723.9735107421875	-313.5133056640625	1397.741455078125	559.506591796875	-129.7084045410156	1474.626708984375	521.561279296875	-22.4869556427002	1470.694091796875	583.5897827148438	21.0568675994873	1344.5625	517.6841430664062	19.60917472839355	1130.577392578125	487.8150329589844	-86.54737091064453	1130.096069335938	482.9017333984375	-7.594710826873779	871.6519775390625	572.5325317382812	-15.71150493621826	863.283203125	484.329833984375	19.56329536437988	1013.197326660156	486.1701965332031	-33.31967544555664	684.036376953125	589.6881103515625	-8.521185874938965	770.5514526367188	505.4754028320312	2.586772441864014	772.6424560546875	575.8414306640625	-333.1224975585938	1523.007934570312	713.1699829101562	-413.7864074707031	1465.306396484375	726.9873046875	-495.7619323730469	1211.740478515625	691.547119140625	-413.9827880859375	1172.07958984375	651.6868896484375	-467.7745056152344	934.702880859375	778.4749145507812	-554.0380249023438	935.4093627929688	743.9503173828125	-519.1168823242188	1137.795166015625	704.9007568359375	-476.0380859375	744.5255737304688	784.2886352539062	-481.3349609375	824.8228759765625	807.1026000976562	-550.5667114257812	829.9913940429688	775.6896362304688	-198.2995910644531	1709.549682617188	736.191162109375	-0.8028524518013	1646.744018554688	769.188720703125	-68.25066375732422	1656.580444335938	839.8110961914062	-102.4404296875	1700.71533203125	628.6319580078125	-54.78706741333008	939.746337890625	590.01611328125	-386.5027465820312	947.4844360351562	757.3898315429688	-277.1393432617188	979.718017578125	824.1668701171875	-67.33061981201172	988.1397094726562	718.6682739257812	-48.72293472290039	526.1047973632812	764.83837890625	-40.8399543762207	644.652587890625	686.4222412109375	-134.5247497558594	38.27028656005859	771.2549438476562	-94.9053955078125	275.4209594726562	738.3847045898438	-20.16350364685059	40.34707641601562	967.27001953125	-69.77979278564453	49.04368591308594	939.2335205078125	-31.67035675048828	45.76288223266602	841.362548828125	-219.3680419921875	46.31192398071289	763.8792114257812	-390.71875	505.0669555664062	752.0286865234375	-387.6599426269531	781.70263671875	772.7164306640625	-512.4962768554688	197.7643280029297	357.5597229003906	-423.8497924804688	404.0560302734375	667.95263671875	-436.0099792480469	42.96675872802734	505.1856384277344	-413.3543395996094	87.85016632080078	458.5583190917969	-512.0673828125	82.52513885498047	453.2666320800781	-475.5473327636719	241.6931610107422	315.3768005371094	
638	6.37	-336.2561340332031	1064.507568359375	624.854736328125	-192.6297607421875	1049.049438476562	549.6177978515625	-258.7092895507812	1117.098999023438	574.4706420898438	-150.1002655029297	1302.417846679688	774.37939453125	-255.8796691894531	1261.0185546875	546.9033203125	-201.3908233642578	1526.563598632812	582.671875	-152.6916809082031	1427.579223632812	729.8680419921875	-310.1560668945312	1398.914672851562	566.5560302734375	-126.6961517333984	1475.831298828125	527.25732421875	-19.05997085571289	1471.778442382812	588.5033569335938	24.33210945129395	1345.673950195312	522.472412109375	23.44835090637207	1131.609375	493.2309265136719	-82.74179840087891	1130.738891601562	488.6027526855469	-2.383908748626709	873.3042602539062	579.9559326171875	-10.8038911819458	864.14306640625	491.8475646972656	23.77652359008789	1014.199951171875	492.357177734375	-26.76987648010254	685.7667236328125	598.9693603515625	-2.885619401931763	771.6812133789062	513.8203125	8.454548835754395	774.448974609375	584.091796875	-328.7019653320312	1523.919921875	720.575439453125	-409.1848754882812	1466.108520507812	734.926513671875	-491.2039489746094	1212.51953125	699.577392578125	-409.8173828125	1173.107666015625	658.6859741210938	-462.7681884765625	934.8746948242188	784.2763061523438	-549.409912109375	936.0792846679688	750.7341918945312	-514.4109497070312	1138.592041015625	712.709716796875	-471.4003295898438	744.6541748046875	788.4581298828125	-476.5377502441406	824.7681274414062	811.9285278320312	-545.8522338867188	830.362548828125	781.509521484375	-193.4582061767578	1710.5712890625	742.5716552734375	4.396773338317871	1647.703979492188	773.773681640625	-62.38918685913086	1657.57421875	844.9876708984375	-98.52886962890625	1701.583618164062	634.1214599609375	-51.41677856445312	940.7886962890625	594.6593627929688	-381.5103149414062	948.335205078125	765.5806884765625	-271.4954833984375	981.026611328125	830.9693603515625	-62.93559265136719	989.1184692382812	723.34619140625	-46.80409622192383	525.9619140625	767.8226318359375	-38.38838195800781	645.0346069335938	690.0900268554688	-134.5278015136719	38.37560272216797	771.3207397460938	-94.04042816162109	275.5985107421875	739.8386840820312	-20.24211883544922	40.20660018920898	967.3612060546875	-69.89316558837891	48.83811187744141	939.3659057617188	-31.71772193908691	45.82281875610352	841.4999389648438	-219.3460540771484	46.25893783569336	763.8434448242188	-382.3639831542969	505.3689880371094	767.8289794921875	-381.3218078613281	782.6099853515625	783.46875	-510.7749938964844	205.0862579345703	370.8791809082031	-416.6467895507812	404.9359741210938	683.8241577148438	-434.7712707519531	45.0753288269043	516.0384521484375	-412.1432189941406	91.48977661132812	469.1607055664062	-510.6800537109375	88.708984375	465.130615234375	-473.8301391601562	248.8725128173828	328.6855163574219	
